<?xml version="1.0" encoding="UTF-8"?>
<svg width="32" height="32" viewBox="0 0 32 32" fill="none" xmlns="http://www.w3.org/2000/svg">
    <defs>
        <linearGradient id="techBg" x1="0%" y1="0%" x2="100%" y2="100%">
            <stop offset="0%" style="stop-color:#0f172a;stop-opacity:1" />
            <stop offset="100%" style="stop-color:#1e293b;stop-opacity:1" />
        </linearGradient>
        <linearGradient id="techLetter" x1="0%" y1="0%" x2="100%" y2="100%">
            <stop offset="0%" style="stop-color:#00d9ff;stop-opacity:1" />
            <stop offset="100%" style="stop-color:#0ea5e9;stop-opacity:1" />
        </linearGradient>
        <filter id="glow" x="-50%" y="-50%" width="200%" height="200%">
            <feGaussianBlur stdDeviation="1" result="coloredBlur"/>
            <feMerge> 
                <feMergeNode in="coloredBlur"/>
                <feMergeNode in="SourceGraphic"/>
            </feMerge>
        </filter>
    </defs>
    
    <!-- Dark tech background -->
    <rect width="32" height="32" rx="4" ry="4" fill="url(#techBg)"/>
    
    <!-- Circuit pattern background -->
    <g opacity="0.1" stroke="#00d9ff" stroke-width="0.5" fill="none">
        <line x1="4" y1="8" x2="8" y2="8"/>
        <line x1="8" y1="8" x2="8" y2="12"/>
        <circle cx="8" cy="12" r="1"/>
        <line x1="24" y1="20" x2="28" y2="20"/>
        <line x1="24" y1="20" x2="24" y2="24"/>
        <circle cx="24" cy="24" r="1"/>
        <line x1="4" y1="24" x2="8" y2="24"/>
        <circle cx="4" cy="24" r="1"/>
    </g>
    
    <!-- Glowing R -->
    <g filter="url(#glow)">
        <path d="M8 6h11c3 0 5.5 2.5 5.5 5.5 0 2.2-1.3 4.1-3.2 5L26 26h-4l-4-8h-4v8h-6V6zm11 9c1.7 0 3-1.3 3-3s-1.3-3-3-3h-5v6h5z" 
              fill="url(#techLetter)" stroke="url(#techLetter)" stroke-width="0.5"/>
    </g>
    
    <!-- Corner accent dots -->
    <circle cx="26" cy="6" r="1" fill="#00d9ff" opacity="0.6"/>
    <circle cx="6" cy="26" r="1" fill="#00d9ff" opacity="0.6"/>
</svg>